PathFileType	4	(X/Y/Z)	D:\TRACE\spotREDO_2-26-24\spot_justBody_Motion_2_3-v60.trc
DataRate	CameraRate	NumFrames	NumMarkers	Units	OrigDataRate	OrigDataStartFrame	OrigNumFrames
100.00	100.00	      21	9	mm	100.00	1	      7000
Frame#	Time	front left toe			Front right toe			aft left toe			aft right toe			Arm			FL body			FR body			AL Body			AR Body			
		X1	Y1	Z1	X2	Y2	Z2	X3	Y3	Z3	X4	Y4	Z4	X5	Y5	Z5	X6	Y6	Z6	X7	Y7	Z7	X8	Y8	Z8	X9	Y9	Z9	

1	0.000	-172.51614	20.80915	-191.23134	242.11888	21.04333	-124.13702	-230.93892	21.65736	412.59555	180.55217	23.75494	459.90778	67.43126	802.07245	-347.74777	-21.71120	554.34601	-290.27423	133.91479	558.82819	-278.38467	-97.55489	578.20319	589.87579	49.55529	578.99109	603.32355	
2	0.010	-172.50732	20.71680	-191.26749	242.17709	20.98086	-124.20506	-230.92300	21.56001	412.54321	180.64709	23.76876	459.90497	63.11515	814.22980	-310.53995	-21.84913	554.79590	-290.19467	133.31508	559.41168	-278.25009	-97.97911	578.21814	590.13763	49.25748	578.90027	603.56879	
3	0.020	-172.47208	20.56427	-191.23000	242.07632	21.14105	-124.15883	-231.01326	21.35910	412.52188	180.59074	23.76992	459.96005	62.66781	814.53625	-310.20786	-22.40306	555.17377	-290.00381	132.92192	559.66754	-277.98495	-98.72598	577.95526	590.27484	48.65163	578.73126	603.46478	
4	0.030	-172.52525	20.55994	-191.23558	242.10315	21.11208	-124.14581	-231.08060	21.28142	412.49881	180.52533	23.71127	459.89633	62.37744	814.62323	-309.87021	-22.85731	555.25574	-289.75513	132.59570	559.80981	-277.55457	-99.08266	577.74219	590.39929	48.53662	578.49561	603.97864	
5	0.040	-172.61757	20.56644	-191.18089	241.93059	21.05569	-124.23700	-231.16661	21.33797	412.52213	180.52368	23.72419	459.95230	61.85743	814.58472	-309.61374	-23.18644	555.17480	-289.62469	132.39352	559.68829	-277.26770	-99.33802	577.60602	590.54865	47.97134	578.43573	604.13684	
6	0.050	-172.69502	20.49590	-191.12398	241.99411	21.08353	-124.16116	-231.15710	21.38224	412.56863	180.55907	23.73022	459.96213	61.41143	814.43549	-309.54486	-23.48784	554.91882	-289.37418	131.99258	559.19446	-276.98102	-99.62633	577.37268	590.70032	48.03706	578.15588	604.56958	
7	0.060	-172.78572	20.41625	-191.10902	241.94963	21.00222	-124.20134	-231.15524	21.33536	412.52890	180.42368	23.68398	460.02170	60.92997	814.10498	-309.51620	-23.71781	554.55505	-289.24130	131.66458	558.85468	-276.88678	-100.06009	577.28986	590.61255	47.51231	577.96735	604.51221	
8	0.070	-172.85847	20.27719	-191.08594	241.95320	20.88057	-124.20876	-231.23175	21.27362	412.53836	180.35977	23.63173	460.02808	60.64363	813.79279	-309.43176	-24.08162	554.34540	-289.18936	131.33171	558.69537	-277.03452	-100.22248	576.87073	591.07605	47.05152	577.53986	604.73846	
9	0.080	-172.86832	20.21691	-191.06229	242.04469	21.04012	-124.04204	-231.17033	21.26531	412.54926	180.39384	23.64751	460.03253	60.44538	813.43591	-309.20154	-24.41416	553.97095	-288.89682	131.00711	558.38263	-276.82114	-100.59694	576.51514	591.43341	46.88406	577.28021	604.94611	
10	0.090	-172.86365	20.29190	-191.01685	242.01617	21.06184	-123.97923	-231.20740	21.29834	412.60785	180.36586	23.63432	460.09131	60.15215	813.17773	-308.98047	-24.65202	553.49048	-288.49219	130.88774	558.19305	-276.52747	-100.92657	576.36334	591.63159	46.52111	577.07324	605.01794	
11	0.100	-172.83667	20.30216	-190.94229	241.92209	20.93902	-124.04772	-231.23438	21.37494	412.62045	180.35594	23.64326	460.08963	60.01953	813.01178	-308.64029	-24.73347	553.27264	-288.21133	130.67043	558.02209	-276.21738	-101.17305	576.11334	591.90619	46.04581	576.86945	605.04401	
12	0.110	-172.79012	20.32799	-190.98203	242.05554	20.93361	-124.00126	-231.21640	21.35004	412.63727	180.34862	23.63385	460.12314	59.76945	812.88776	-308.41571	-24.90104	553.16956	-288.05402	130.46831	557.79297	-276.07349	-101.38592	575.65704	592.12268	46.14326	576.60669	605.78711	
13	0.120	-172.84631	20.26420	-190.93791	241.95505	20.95146	-124.02940	-231.24916	21.22003	412.65695	180.32832	23.63437	460.14218	59.58123	812.62311	-308.06558	-25.06333	552.95294	-287.90414	130.11319	557.53931	-275.90656	-101.66381	575.32507	592.40320	45.46630	576.22540	605.75055	
14	0.130	-172.81636	20.17576	-190.93964	241.88228	21.06770	-123.96004	-231.28914	21.12770	412.69482	180.35547	23.60789	460.15805	59.40536	812.45972	-307.82037	-25.23719	552.85278	-287.65811	129.92648	557.39661	-275.69165	-102.03815	574.86719	592.27826	45.27334	575.88232	605.99908	
15	0.140	-172.91116	20.18306	-190.89896	241.95210	21.01466	-123.90455	-231.27153	21.11876	412.75769	180.27075	23.58903	460.20493	59.09803	812.32550	-307.42175	-25.28239	552.73279	-287.42035	129.84453	557.34161	-275.47485	-102.29836	574.42883	592.59155	44.78360	575.37097	606.23553	
16	0.150	-172.91664	20.24629	-190.85254	241.88850	20.91407	-123.95374	-231.32411	21.05917	412.79449	180.29604	23.60369	460.21423	58.88392	812.31451	-307.07639	-25.53427	552.65393	-287.16638	129.74776	557.35193	-275.31989	-102.47980	573.99298	592.80731	44.86271	574.94745	606.77747	
17	0.160	-172.83112	20.28803	-190.84203	241.80389	20.99157	-123.94692	-231.34215	21.17386	412.86328	180.25343	23.57410	460.27289	58.61330	812.36597	-306.75748	-25.68958	552.56976	-286.98660	129.56682	557.34930	-275.13150	-103.04800	573.60681	592.54053	44.35700	574.82050	606.65210	
18	0.170	-172.80945	20.33489	-190.86269	241.70506	21.12423	-123.88168	-231.29567	21.13778	412.90445	180.28624	23.61780	460.29446	58.37476	812.31805	-306.55753	-25.86846	552.56384	-286.76303	129.39865	557.17621	-274.74347	-103.30228	573.19263	593.09039	44.02291	574.27087	606.81421	
19	0.180	-172.84448	20.24608	-190.84369	241.88950	21.05229	-123.84412	-231.31192	21.04110	412.89127	180.22169	23.59649	460.31302	58.14985	812.25122	-306.30264	-26.00708	552.41626	-286.65771	129.13058	557.19745	-274.55243	-103.45381	572.81500	593.42267	43.83227	573.92303	607.05627	
20	0.190	-172.79146	20.18104	-190.84813	241.79965	20.88406	-123.95256	-231.28767	20.93907	412.94879	180.23087	23.60495	460.33621	58.02467	812.17157	-306.10477	-26.21826	552.34393	-286.45712	128.97757	557.25659	-274.38812	-103.68446	572.36420	593.64246	43.52003	573.47302	607.17804	
21	0.200	-172.89088	20.16981	-190.79440	241.66133	21.10783	-123.87515	-231.27116	20.95150	412.99158	180.18541	23.58500	460.38409	57.75711	812.08002	-305.83633	-26.41793	552.29004	-286.29160	128.82603	557.28680	-274.21915	-104.04469	571.95758	593.82275	43.10038	573.18427	607.25806	
